<svg xmlns="http://www.w3.org/2000/svg" xmlns:xlink="http://www.w3.org/1999/xlink" fill="none" version="1.1" width="48" height="48" viewBox="0 0 48 48"><defs><clipPath id="master_svg0_4576_4047"><rect x="0" y="0" width="48" height="48" rx="0"/></clipPath></defs><g clip-path="url(#master_svg0_4576_4047)"><g><path d="M29.9573,6.46541L41.5346,18.0427C44.8218,21.334,44.8218,26.666,41.5346,29.9573L29.9573,41.5346C26.666,44.8218,21.334,44.8218,18.0427,41.5346L6.46541,29.9573C3.178197,26.666,3.178197,21.334,6.46541,18.0427L18.0427,6.46541C21.334,3.178198,26.666,3.178198,29.9573,6.46541ZM21.19,21.19L12.75988,21.19L12.75988,26.81L21.19,26.81L21.19,35.2401L26.81,35.2401L26.81,26.81L35.2401,26.81L35.2401,21.19L26.81,21.19L26.81,12.75988L21.19,12.75988L21.19,21.19Z" fill="#635DF7" fill-opacity="1"/></g></g></svg>