<svg xmlns="http://www.w3.org/2000/svg" xmlns:xlink="http://www.w3.org/1999/xlink" fill="none" version="1.1" width="48" height="48" viewBox="0 0 48 48"><defs><clipPath id="master_svg0_4808_1991"><rect x="0" y="0" width="48" height="48" rx="0"/></clipPath></defs><g clip-path="url(#master_svg0_4808_1991)"><g><path d="M18.168100000000003,2.466552734375C15.4464,2.466552734375,13.25842,4.654572734375,13.25842,7.376242734375C13.25842,10.097922734375,15.4464,12.285942734375,18.168100000000003,12.285942734375C20.8898,12.285942734375,23.0778,10.097922734375,23.0778,7.376242734375C23.1312,4.7079327343749995,20.8898,2.466552631759,18.168100000000003,2.466552734375ZM18.168100000000003,10.204652734375C16.6205,10.204652734375,15.3397,8.923862734375,15.3397,7.376242734375C15.3397,5.828622734375,16.6205,4.547832734375,18.168100000000003,4.547832734375C19.7157,4.547832734375,20.996499999999997,5.828622734375,20.996499999999997,7.376242734375C20.996499999999997,8.977232734375,19.7157,10.204652734375,18.168100000000003,10.204652734375ZM43.944,35.126652734375C41.1156,30.323752734375,36.6328,26.748152734375,31.2428,25.093852734375C31.1361,25.040452734375,30.976,25.093852734375,30.8693,25.200552734375C28.3611,27.655452734375,25.2658,29.576552734375,24.5187,30.056852734375C23.7182,29.523252734375,20.195999999999998,27.228452734375,18.1147,25.200552734375C18.008,25.093852734375,17.9013,25.093852734375,17.7412,25.093852734375C12.40456,26.748152734375,7.86843,30.323752734375,5.0400244,35.126652734375C4.9866583,35.233452734375,4.9866583,35.393552734375,5.0400244,35.500252734375C9.04249,42.331152734375,16.4604,46.547052734375,24.4653,46.547052734375C32.4169,46.547052734375,39.8882,42.331152734375,43.8906,35.500252734375C43.9974,35.340152734375,43.9974,35.233452734375,43.944,35.126652734375ZM36.4727,37.741652734375C36.4727,37.955052734375,36.3126,38.061852734375,36.099199999999996,38.061852734375L33.6977,38.061852734375C33.4842,38.061852734375,33.2708,38.221952734375,33.2708,38.435352734375L33.2708,40.890252734375C33.2708,41.103652734375,33.164,41.210452734375,32.9506,41.210452734375L30.8159,41.210452734375C30.6024,41.210452734375,30.4423,41.050352734375,30.4423,40.890252734375L30.4423,38.435352734375C30.4423,38.221952734375,30.3356,38.061852734375,30.1221,38.061852734375L27.6139,38.061852734375C27.4005,38.061852734375,27.2404,37.901752734375,27.2404,37.741652734375L27.2404,35.606952734375C27.2404,35.393552734375,27.4005,35.233452734375,27.6139,35.233452734375L30.1221,35.233452734375C30.3356,35.233452734375,30.4423,35.073352734375,30.4423,34.859852734375L30.4423,32.404952734375C30.4423,32.191552734375,30.6024,32.031452734375,30.8159,32.031452734375L32.9506,32.031452734375C33.164,32.031452734375,33.2708,32.191552734375,33.2708,32.404952734375L33.2708,34.859852734375C33.2708,35.073352734375,33.4842,35.180052734375,33.6443,35.180052734375L36.0458,35.180052734375C36.259299999999996,35.180052734375,36.419399999999996,35.340152734375,36.419399999999996,35.553652734375L36.4727,37.741652734375Z" fill="#635DF7" fill-opacity="1"/></g><g><path d="M23.80543,1.45263671875C21.35058,1.45263671875,19.16257,2.46659671875,17.56158,4.06758671875C19.37603,4.12094671875,20.81692,5.61520671875,20.81692,7.42965671875C20.81692,9.29747671875,19.32267,10.79172671875,17.45485,10.79172671875C16.49425,10.79172671875,15.640395,10.36479671875,15,9.72439671875L15,14.90093671875C15,19.75723671875,18.9491,23.70633671875,23.80543,23.70633671875C28.6618,23.70633671875,32.6109,19.75723671875,32.6109,14.90093671875L32.6109,10.31142671875C32.6109,5.40173671875,28.6618,1.452636000438,23.80543,1.45263671875Z" fill="#635DF7" fill-opacity="1"/></g></g></svg>