<svg xmlns="http://www.w3.org/2000/svg" xmlns:xlink="http://www.w3.org/1999/xlink" fill="none" version="1.1" width="48" height="48" viewBox="0 0 48 48"><defs><clipPath id="master_svg0_4576_4041"><rect x="0" y="0" width="48" height="48" rx="0"/></clipPath></defs><g clip-path="url(#master_svg0_4576_4041)"><g><path d="M33.3486671875,35.950275C38.7679671875,32.870175,42.4096671875,27.203475,42.4096671875,20.722475C42.4110671875,10.959845,34.1676671875,3.046875,23.9999671875,3.046875C13.8323071875,3.046875,5.5888671875,10.959845,5.5888671875,20.722475C5.5888671875,27.208075,9.224497187499999,32.876275,14.6512071875,35.950275L10.7277771875,42.476675C10.064027187499999,43.576875,10.8927771875,44.953075,12.2127771875,44.953075L35.7824671875,44.953075C37.1024671875,44.953075,37.9316671875,43.576875,37.2679671875,42.476675L33.3486671875,35.950275ZM23.9999671875,31.094075C18.271367187499997,31.094075,13.6274571875,26.450575,13.6274571875,20.722075C13.6274571875,14.993475,18.271367187499997,10.349535,23.9999671875,10.349535C29.7285671875,10.349535,34.3724671875,14.993475,34.3724671875,20.722075C34.3724671875,26.450575,29.7285671875,31.094075,23.9999671875,31.094075Z" fill="#635DF7" fill-opacity="1"/></g><g><path d="M23.99980734375,12.862060546875C23.84887734375,12.862060546875,23.69887734375,12.866748046875,23.54980734375,12.875185546875C24.28439734375,14.666060546875,23.65558734375,16.726530546875,22.04622734375,17.802090546875C20.436877343749998,18.877650546875,18.29257734375,18.670490546875,16.91887334375,17.306750546875C14.82901734375,21.637750546875,17.08296134375,26.813360546875,21.67736734375,28.233360546874998C26.27177734375,29.653460546875,31.05297734375,26.652260546875,31.77137734375,21.897370546875003C32.48917734375,17.141800546875,28.80807734375,12.862061462402,23.99980734375,12.862060546875Z" fill="#78A4FA" fill-opacity="1"/></g></g></svg>