<svg xmlns="http://www.w3.org/2000/svg" xmlns:xlink="http://www.w3.org/1999/xlink" fill="none" version="1.1" width="48" height="48" viewBox="0 0 48 48"><defs><clipPath id="master_svg0_4576_3478"><rect x="0" y="0" width="48" height="48" rx="0"/></clipPath></defs><g clip-path="url(#master_svg0_4576_3478)"><g><path d="M40.440490625,26.373478125L29.640490625,15.777478125C28.102090625,16.927078125,26.203690625,17.606278125,24.146890625,17.606278125C22.058890625,17.606278125,20.131690624999997,16.905478125000002,18.581290625,15.724678125L7.858130625,26.215078125C6.778130625,27.271078125,6.744530625,29.020678125,7.781330625,30.119878125C8.810390625,31.219178125,10.542960625,31.254978125,11.616530625,30.199078125L17.722090625,24.227878125L13.380530624999999,36.383878125L17.018930625,36.383878125L17.018930625,42.621478125C17.018930625,44.042278125,17.950090625,45.379078125,19.466890624999998,45.419878125C21.362890625,45.470278125,22.325290625,44.243878125,22.325290625,42.712678125L22.325290625,36.859078125C22.325290625,36.695878125,22.339690625,36.537478125,22.361290625000002,36.381478125L25.766890625,36.381478125C25.783690625,36.511078125,25.793290625,36.640678125,25.793290625,36.772678125L25.793290625,42.619078125C25.793290625,44.039878125,26.844490625,45.371878125,28.418890625,45.371878125C29.858890625,45.371878125,31.051690625,44.241478125,31.051690625,42.710278125L31.051690625,36.379078125L34.562890625,36.379078125L30.629290625,24.415078125L36.674890625,30.347878125C37.176490625,30.843078125,37.852490625,31.120678125,38.556490624999995,31.120678125C39.266890625,31.120678125,39.977290625,30.837478125,40.510090625,30.275878125C41.551690625,29.179078125,41.518090625,27.431878125,40.440490625,26.373478125ZM24.146890625,15.743878125C26.316490625,15.743878125,28.159690625,14.375878125,28.877290625,12.455878125L31.404490625,12.455878125L31.404490625,9.847078125C31.404490625,5.764678125,28.154890625,2.455078125,24.146890625,2.455078125C20.138890625000002,2.455078125,16.889330625,5.764678125,16.889330625,9.847078125L16.889330625,12.455878125L19.416490625,12.455878125C20.134090625,14.375878125,21.977290625000002,15.743878125,24.146890625,15.743878125Z" fill="#E66E6A" fill-opacity="1"/></g></g></svg>