<svg xmlns="http://www.w3.org/2000/svg" xmlns:xlink="http://www.w3.org/1999/xlink" fill="none" version="1.1" width="32" height="32" viewBox="0 0 32 32"><defs><clipPath id="master_svg0_4270_7528"><rect x="0" y="0" width="32" height="32" rx="0"/></clipPath></defs><g clip-path="url(#master_svg0_4270_7528)"><g><path d="M28.80757890625,31.185293359375002L3.17311890625,31.185293359375002C2.40157290625,31.185293359375002,1.77587890625,30.559993359375,1.77587890625,29.787993359375L1.77587890625,19.732933359375C1.77587890625,18.960955359375,2.40157290625,18.335693359375,3.17311890625,18.335693359375C3.94465890625,18.335693359375,4.57035890625,18.960955359375,4.57035890625,19.732933359375L4.57035890625,28.390793359375L27.41027890625,28.390793359375L27.41027890625,19.732933359375C27.41027890625,18.960955359375,28.03597890625,18.335693359375,28.80757890625,18.335693359375C29.57907890625,18.335693359375,30.20477890625,18.960955359375,30.20477890625,19.732933359375L30.20477890625,29.787993359375C30.20477890625,30.559993359375,29.57907890625,31.185293359375002,28.80757890625,31.185293359375002Z" fill="#F2B04F" fill-opacity="1"/></g><g><path d="M15.99050171875,26.249773046875C15.21895671875,26.249773046875,14.59326171875,25.624573046875,14.59326171875,24.852573046875L14.59326171875,2.204613046875C14.59326171875,1.432635046875,15.21895471875,0.807373046875,15.99050171875,0.807373046875C16.762041718749998,0.807373046875,17.38774171875,1.432635046875,17.38774171875,2.204613046875L17.38774171875,24.852573046875C17.38774171875,25.624573046875,16.762041718749998,26.249773046875,15.99050171875,26.249773046875Z" fill="#F2B04F" fill-opacity="1"/></g><g><path d="M15.990635937499999,27.179257265625C15.541435937500001,27.179257265625,15.1181159375,26.962637265625,14.8561959375,26.597577265625L10.1134349375,19.996297265625C9.6629359375,19.369737265624998,9.8057666375,18.496357265625,10.4327539375,18.045857265625C11.0584459375,17.596651265625,11.9309659375,17.737756365625,12.3823259375,18.365176265625L15.9910659375,23.387117265625L19.598945937499998,18.365608265625C20.0502859375,17.737756365625,20.923285937499998,17.596651265625,21.5484859375,18.045857265625C22.1750859375,18.496356265625,22.3178859375,19.368877265625,21.8678859375,19.995867265625L17.1255159375,26.596717265625C16.8633059375,26.962547265625,16.4407359375,27.179457265625,15.990635937499999,27.179257265625Z" fill="#F2B04F" fill-opacity="1"/></g></g></svg>