<?xml version="1.0" standalone="no"?><!DOCTYPE svg PUBLIC "-//W3C//DTD SVG 1.1//EN" "http://www.w3.org/Graphics/SVG/1.1/DTD/svg11.dtd"><svg t="1692063284585" class="icon" viewBox="0 0 1556 1024" version="1.1" xmlns="http://www.w3.org/2000/svg" p-id="12294" xmlns:xlink="http://www.w3.org/1999/xlink" width="194.5" height="128"><path d="M0 72.485184m181.212959 0l1014.792569 0q181.212959 0 181.212959 181.212958l0 434.911102q0 181.212959-181.212959 181.212958l-1014.792569 0q-181.212959 0-181.212959-181.212958l0-434.911102q0-181.212959 181.212959-181.212958Z" fill="#F5A623" p-id="12295"></path><path d="M36.242592 108.727775m181.212959 0l942.307386 0q181.212959 0 181.212958 181.212959l0 362.425918q0 181.212959-181.212958 181.212959l-942.307386 0q-181.212959 0-181.212959-181.212959l0-362.425918q0-181.212959 181.212959-181.212959Z" fill="#FFFFFF" p-id="12296"></path><path d="M456.076775 532.041247a209.518423 209.518423 0 0 1-33.633125 48.130162l-31.893481-38.852058c24.355022-26.674548 41.171584-62.047317 49.289925-106.118309l45.230754 8.118341c-2.899407 13.917155-5.798815 27.254429-9.278103 39.431939h42.331347v-49.869806h53.928976v49.869806h79.443762v49.289925h-79.443762v58.568028h91.621272v50.449688h-91.621272v109.017716h-53.928976v-109.017716h-123.514753v-50.449688h123.514753V532.041247h-62.047317z m13.917155-239.491046h-71.905302V243.840157h249.928913c-0.579881 82.343169-6.378696 131.633093-17.396444 147.869775-11.017748 16.236681-30.153836 24.355022-56.828384 24.355022-13.917155 0-30.153836-1.159763-49.289925-2.319526l-12.757392-45.230755c20.295851 1.159763 37.112414 2.319526 50.449688 3.479289 13.917155-0.579881 23.195259-5.218933 26.674547-13.337274 3.479289-8.118341 5.218933-30.153836 6.378696-66.106487h-73.644946c-5.798815 24.934903-14.497037 46.970399-24.934903 66.686369-15.6568 24.934903-38.272177 47.55028-67.846132 67.846131l-32.473362-41.171584c24.355022-13.917155 42.911229-30.153836 55.088739-49.289925 8.118341-12.757392 13.917155-27.254429 18.556207-44.070991z m-260.366779 208.757328v65.526606h40.591703v-65.526606h-40.591703z m-2.899408 111.337242c-5.218933 55.668621-17.976326 102.059138-38.852058 140.331316l-37.112414-34.213007c20.875733-41.171584 31.313599-93.360916 31.893481-157.147878v-172.804677l-29.573955-35.952652c32.473362-34.213007 60.307673-81.763287 83.502931-142.070959l49.869807 11.597629c-4.05917 10.437866-8.118341 20.875733-12.177511 30.733718h98.579849v37.692295c-11.017748 21.455614-22.035496 40.591703-33.053243 56.828384h62.047317v350.828289c0 30.153836-16.236681 45.230755-48.130162 45.230754h-28.414192l-11.597629-41.171584v35.952651h-43.49111v-125.834279h-43.491111z m57.408266-265.005831c9.857985-14.497037 19.71597-31.313599 30.153836-49.869806H232.82241c-9.278103 17.976326-19.136088 34.792888-29.573955 49.869806h60.887554z m29.573955 350.828289c8.698222 1.159763 16.816563 2.319526 24.355021 2.319525 11.597629 0 17.396444-6.378696 17.396444-18.556207v-69.585776H293.709964v85.822458z m41.751465-131.633094v-65.526606H293.709964v65.526606h41.751465z m0-110.75736v-61.467436H293.709964v61.467436h41.751465z m-85.242575-61.467436h-40.591703v61.467436h40.591703v-61.467436z m666.863688-147.869774h126.994042V208.467388h53.928976v38.272177h126.41416v49.869806h-126.41416v39.43194h137.431908v34.792888a801.033763 801.033763 0 0 1-38.272177 110.177479l-53.349095-15.076918c12.757392-23.195259 23.77514-49.289925 33.053244-78.86388h-283.562038V336.041311h150.769182V296.609371h-126.994042V246.739565z m-23.195259 298.059074h82.343169a413.455487 413.455487 0 0 0-79.443761-54.508858l26.094666-38.272176c31.313599 15.076918 60.307673 33.633125 86.402339 55.668621l-24.355022 37.112413h70.745539c2.319526-11.597629 3.479289-23.77514 4.05917-35.952651v-107.278071h53.349095v107.278071c-0.579881 12.757392-1.739644 24.355022-2.899407 35.952651h134.532501v51.02957h-145.550249c-1.739644 5.218933-3.479289 9.857985-5.218933 14.497036a872.431669 872.431669 0 0 1 155.988115 94.52068l-30.733718 46.970399c-48.130162-40.591703-96.840205-74.224828-146.710011-99.739613-3.479289 4.639052-6.378696 9.278103-9.857985 13.917155-30.153836 37.112414-79.443761 65.526606-147.289893 85.242576l-29.573955-45.810636c66.106487-19.71597 111.337242-44.070992 135.112382-73.644946 8.118341-11.017748 14.497037-23.195259 20.295851-35.952651h-147.289893v-51.02957z m77.704117-151.349063c28.994073 13.917155 56.248502 31.313599 80.603524 51.609451l-26.094666 39.43194a340.897818 340.897818 0 0 0-79.443761-54.508858l24.934903-36.532533z m-182.082781-175.704085a731.520472 731.520472 0 0 1 94.520679 85.242576l-37.692295 38.272177c-22.615377-26.674548-54.508858-55.668621-95.680442-85.822457l38.852058-37.692296z m-78.86388 168.165626h131.053212v237.751402c11.597629-12.177511 23.77514-24.934903 36.532533-38.852058l15.076918 57.988147a735.579643 735.579643 0 0 1-98.57985 88.141983l-20.875733-49.289925c9.278103-8.118341 14.497037-17.976326 14.497037-29.573955v-213.39638h-77.704117v-52.769214z" fill="#F5A623" p-id="12297"></path></svg>