<svg xmlns="http://www.w3.org/2000/svg" xmlns:xlink="http://www.w3.org/1999/xlink" fill="none" version="1.1" width="32" height="32" viewBox="0 0 32 32"><defs><clipPath id="master_svg0_4576_3952"><rect x="0" y="0" width="32" height="32" rx="0"/></clipPath></defs><g clip-path="url(#master_svg0_4576_3952)"><g><path d="M27.98781953125,10.8691Q27.98781953125,11.1888,27.97181953125,11.4765Q27.95581953125,11.7642,27.92381953125,12.0839Q27.63611953125,14.7373,26.75701953125,17.1828Q25.87791953125,19.6284,24.53521953125,21.8821Q23.19261953125,24.1359,21.43431953125,26.2138Q19.676119531250002,28.2917,17.63011953125,30.2098Q17.342419531250002,30.5614,16.89491953125,30.5614Q16.415419531250002,30.5614,16.127619531249998,30.2098Q14.08170953125,28.2917,12.30747953125,26.1818Q10.53325953125,24.0719,9.17461953125,21.7702Q7.8159695312499995,19.4685,6.93684953125,16.991Q6.05773153125,14.5135,5.80198733125,11.8282Q5.80198733125,11.5724,5.78600343125,11.3487Q5.77001953125,11.1249,5.77001953125,10.8691Q5.77001953125,8.63137,6.64914053125,6.64935Q7.52825953125,4.66733,9.03075953125,3.1968Q10.53325953125,1.72627,12.56322953125,0.863137Q14.59319953125,0,16.89491953125,0Q19.19661953125,0,21.21061953125,0.863137Q23.22451953125,1.72627,24.72701953125,3.1968Q26.22951953125,4.66733,27.10871953125,6.64935Q27.98781953125,8.63137,27.98781953125,10.8691ZM16.89491953125,15.8561Q17.94981953125,15.8561,18.87691953125,15.4565Q19.80401953125,15.0569,20.49131953125,14.3856Q21.17861953125,13.7143,21.57821953125,12.8032Q21.97781953125,11.8921,21.97781953125,10.8691Q21.97781953125,9.84615,21.57821953125,8.93506Q21.17861953125,8.02397,20.49131953125,7.35265Q19.80401953125,6.68132,18.87691953125,6.28172Q17.94981953125,5.88212,16.89491953125,5.88212Q15.83991953125,5.88212,14.91286953125,6.28172Q13.98579953125,6.68132,13.28250953125,7.35265Q12.579209531250001,8.02398,12.17960953125,8.93506Q11.78000953125,9.84615,11.78000953125,10.8691Q11.779999531249999,11.8921,12.17960953125,12.8032Q12.579209531250001,13.7143,13.28250953125,14.3856Q13.98579953125,15.0569,14.91286953125,15.4565Q15.83991953125,15.8561,16.89491953125,15.8561Z" fill="#F2B04F" fill-opacity="1"/></g></g></svg>