<svg xmlns="http://www.w3.org/2000/svg" xmlns:xlink="http://www.w3.org/1999/xlink" fill="none" version="1.1" width="32" height="32" viewBox="0 0 32 32"><defs><clipPath id="master_svg0_2544_5128"><rect x="0" y="0" width="32" height="32" rx="0"/></clipPath></defs><g clip-path="url(#master_svg0_2544_5128)"><g><path d="M25.5244046875,8.30771875C26.0049046875,9.43491875,26.2821046875,10.49755875,26.3561046875,11.49550875C26.4301046875,12.49346875,26.3746046875,13.41276875,26.1898046875,14.25346875C26.0049046875,15.09446875,25.7370046875,15.84736875,25.3858046875,16.51276875C25.0347046875,17.17806875,24.6698046875,17.76016875,24.2909046875,18.25906875C23.9120046875,18.75796875,23.5563046875,19.16916875,23.2236046875,19.49266875C22.8909046875,19.81606875,22.6600046875,20.03306875,22.5306046875,20.14396875C22.3458046875,20.31026875,22.1748046875,20.43506875,22.0177046875,20.51816875C21.8607046875,20.60146875,21.7221046875,20.67076875,21.6019046875,20.72606875C21.481804687500002,20.78156875,21.366304687499998,20.84626875,21.2554046875,20.92016875C21.1445046875,20.99406875,21.0337046875,21.11416875,20.922804687499998,21.28046875C20.6826046875,21.63156875,20.4977046875,21.97346875,20.3684046875,22.30616875C20.2390046875,22.63876875,20.1281046875,22.96226875,20.0357046875,23.27636875C19.9432046875,23.53506875,19.841604687500002,23.74756875,19.7307046875,23.91386875C19.6199046875,24.08026875,19.4998046875,24.22806875,19.3704046875,24.35736875C19.222604687500002,24.50516875,19.074704687500002,24.62536875,18.9269046875,24.71766875L12.8282746875,24.71766875C12.680464687499999,24.62536875,12.5418346875,24.50526875,12.4124746875,24.35736875C12.2830846875,24.22806875,12.1537946875,24.06166875,12.024404687499999,23.85846875C11.8949846875,23.65516875,11.7841446875,23.39646875,11.6916846875,23.08226875C11.506944687499999,22.54636875,11.2804946875,22.11666875,11.0126346875,21.79326875C10.7446146875,21.46996875,10.3980746875,21.15106875,9.973104687500001,20.83686875C9.6773246875,20.61516875,9.340034687500001,20.31946875,8.9611646875,19.94996875C8.5823046875,19.58036875,8.2081746875,19.14616875,7.8384946875,18.64706875C7.4688346875,18.14816875,7.1177046875,17.58916875,6.7851746875,16.97006875C6.4524606875,16.35096875,6.1844706875,15.67176875,5.9811756875,14.93266875C5.7779776875,14.19346875,5.6577660875,13.40346875,5.6208294675,12.56266875C5.5838927875,11.72174875,5.6669762875,10.83936875,5.8702706875,9.91532875C6.1844386875,8.43702875,6.7296646875,7.19425875,7.5058046874999995,6.18713875C8.282044687500001,5.17997875,9.1506146875,4.37136875,10.1116646875,3.76163875C11.0725646875,3.1517487500000003,12.065914687500001,2.7127867500000002,13.0916646875,2.44496775C14.1172146875,2.17695775,15.0459046875,2.04296875,15.8775046875,2.04296875C16.7461046875,2.04296875,17.6516046875,2.16301575,18.5941046875,2.40326875C19.5367046875,2.64352175,20.446904687500002,3.01779575,21.324704687500002,3.52602875C22.2026046875,4.03412875,23.0065046875,4.68098875,23.7364046875,5.466408749999999C24.4664046875,6.25176875,25.0624046875,7.19892875,25.5244046875,8.30771875ZM19.5090046875,26.43646875L19.5090046875,26.74136875C19.5090046875,26.83366875,19.513704687500002,26.93526875,19.5228046875,27.04626875C19.5320046875,27.15716875,19.536804687500002,27.26796875,19.536804687500002,27.37886875C19.518204687500003,27.72996875,19.4212046875,28.11336875,19.2456046875,28.52916875C19.0701046875,28.94496875,18.7328046875,29.24536875,18.2339046875,29.43006875C18.030604687500002,29.50416875,17.7673046875,29.61036875,17.4438046875,29.74896875C17.1204046875,29.88756875,16.6353046875,29.95686875,15.9884046875,29.95686875C15.4339846875,29.95686875,14.9766346875,29.89216875,14.6163246875,29.76276875C14.2558446875,29.63336875,13.9740446875,29.55026875,13.7707146875,29.51336875C13.5120346875,29.45786875,13.3041346875,29.34236875,13.1469846875,29.16686875C12.989964687499999,28.99126875,12.869784687500001,28.79256875,12.7866746875,28.57086875C12.7034246875,28.34906875,12.6526746875,28.12276875,12.6341246875,27.89166875C12.6157046875,27.66066875,12.6064946875,27.45276875,12.6064946875,27.26796875L12.6064946875,26.40866875L19.5090046875,26.43646875Z" fill="#FFFFFF" fill-opacity="1"/></g></g></svg>