<svg xmlns="http://www.w3.org/2000/svg" xmlns:xlink="http://www.w3.org/1999/xlink" fill="none" version="1.1" width="24" height="24" viewBox="0 0 24 24"><defs><clipPath id="master_svg0_2456_7351"><rect x="0" y="0" width="24" height="24" rx="0"/></clipPath></defs><g clip-path="url(#master_svg0_2456_7351)"><g><path d="M20.99093671875,8.15185Q20.99093671875,8.39161,20.97893671875,8.60739Q20.96703671875,8.82318,20.94303671875,9.06294Q20.72723671875,11.0529,20.067936718749998,12.8871Q19.40853671875,14.7213,18.401536718750002,16.4116Q17.39453671875,18.1019,16.07593671875,19.6603Q14.75723671875,21.2188,13.22273671875,22.6573Q13.00695671875,22.9211,12.67129671875,22.9211Q12.311656718750001,22.9211,12.095866718749999,22.6573Q10.56140671875,21.2188,9.23073671875,19.6364Q7.900066718750001,18.0539,6.88108671875,16.3277Q5.86210671875,14.6014,5.20276171875,12.7433Q4.54342071875,10.8851,4.35161251875,8.87113Q4.35161251875,8.67932,4.33962461875,8.51149Q4.32763671875,8.34366,4.32763671875,8.15185Q4.32763671875,6.47353,4.9869777187499995,4.98701Q5.6463167187500005,3.5005,6.77318671875,2.3976Q7.900066718750001,1.29471,9.422546718749999,0.647353Q10.94501671875,0,12.67129671875,0Q14.39753671875,0,15.90803671875,0.647353Q17.418536718749998,1.29471,18.54543671875,2.3976Q19.67233671875,3.5005,20.33163671875,4.98701Q20.99093671875,6.47353,20.99093671875,8.15185ZM12.67129671875,11.8921Q13.46249671875,11.8921,14.15780671875,11.5924Q14.85313671875,11.2927,15.36863671875,10.7892Q15.88403671875,10.2857,16.183736718749998,9.6024Q16.48343671875,8.91908,16.48343671875,8.15185Q16.48343671875,7.38461,16.183736718749998,6.7013Q15.88403671875,6.01798,15.36863671875,5.51448Q14.85313671875,5.01099,14.15780671875,4.71129Q13.46249671875,4.41159,12.67129671875,4.41159Q11.88007671875,4.41159,11.184776718750001,4.71129Q10.48947671875,5.01099,9.961996718750001,5.51448Q9.43452671875,6.01798,9.13482671875,6.7013Q8.83512671875,7.38461,8.83512671875,8.15185Q8.83512671875,8.91908,9.13482671875,9.6024Q9.43452671875,10.2857,9.961996718750001,10.7892Q10.48946671875,11.2927,11.184776718750001,11.5924Q11.88008671875,11.8921,12.67129671875,11.8921Z" fill="#B6B7B8" fill-opacity="1"/></g></g></svg>